<svg id="visual" viewBox="0 0 960 540" width="960" height="540" xmlns="http://www.w3.org/2000/svg" xmlns:xlink="http://www.w3.org/1999/xlink" version="1.1"><rect x="0" y="0" width="960" height="540" fill="#001122"></rect><path d="M0 273L20 269C40 265 80 257 120 238.5C160 220 200 191 240 196.2C280 201.3 320 240.7 360 244.8C400 249 440 218 480 195.7C520 173.3 560 159.7 600 166.8C640 174 680 202 720 201.3C760 200.7 800 171.3 840 167C880 162.7 920 183.3 940 193.7L960 204L960 0L940 0C920 0 880 0 840 0C800 0 760 0 720 0C680 0 640 0 600 0C560 0 520 0 480 0C440 0 400 0 360 0C320 0 280 0 240 0C200 0 160 0 120 0C80 0 40 0 20 0L0 0Z" fill="#FFFFFF" stroke-linecap="round" stroke-linejoin="miter"></path></svg>